<?xml version="1.0" standalone="no"?>
<!DOCTYPE svg PUBLIC "-//W3C//DTD SVG 20010904//EN" "http://www.w3.org/TR/2001/REC-SVG-20010904/DTD/svg10.dtd">
<!-- Created using Krita: https://krita.org -->
<svg xmlns="http://www.w3.org/2000/svg" 
    xmlns:xlink="http://www.w3.org/1999/xlink"
    xmlns:krita="http://krita.org/namespaces/svg/krita"
    xmlns:sodipodi="http://sodipodi.sourceforge.net/DTD/sodipodi-0.dtd"
    width="245.76pt"
    height="245.76pt"
    viewBox="0 0 245.76 245.76">
<defs/>
<rect id="shape0" transform="translate(-16.8, -7.2)" fill="none" stroke="#ffffff" stroke-width="1.44" stroke-linecap="square" stroke-linejoin="bevel" width="5.76" height="7.2"/><path id="shape01" transform="translate(17.17499888799, 2.90850155269161)" fill="#ffffff" stroke="none" stroke-width="4.2" stroke-linecap="round" stroke-linejoin="round" d="M215.385 242.851C215.985 238.611 216.465 233.251 216.825 226.771C217.365 217.051 216.465 195.451 216.105 186.991C215.745 178.531 214.665 156.211 214.305 149.011C213.945 141.811 211.245 125.611 210.705 121.831C210.165 118.051 208.185 106.531 207.465 101.851C206.745 97.1715 202.425 79.6515 201.945 77.6115C201.465 75.5715 198.465 64.2915 197.985 62.1315C197.505 59.9715 191.565 40.1115 190.545 36.5715C189.525 33.0315 185.729 22.5656 183.315 18.1515C181.8 14.5665 174.885 3.5115 172.052 0C166.451 9.26508 165.514 10.9951 162.168 17.3411C159.681 21.3682 148.724 45.4311 146.545 58.3684C145.885 62.3153 145.255 65.7945 144.363 71.0826C143.955 74.3216 143.64 75.693 143.573 79.048C141.773 79.218 140.38 78.6415 138.78 78.2115C136.38 77.5665 132.705 76.4115 127.305 75.5715C121.905 74.7315 115.305 74.3715 110.385 74.1315C105.465 73.8915 101.145 74.1315 97.905 74.1315C94.665 74.1315 90.945 74.4915 85.665 74.8515C80.385 75.2115 74.295 76.7715 72.39 77.2665C70.485 77.7615 66.36 80.3317 56.4225 81.9367C53.9884 78.3238 50.9978 73.6251 47.4356 67.8604C42.0924 59.2133 36.7493 53.2685 31.5842 47.1434C26.4191 41.0184 0.667898 15.8578 0.638215 17.5092C0.87569 45.6122 0 69.6619 0 76.3874C0 83.1129 0.47495 102.088 0.9499 110.976C1.42485 119.863 3.56213 139.799 3.32465 146.524C3.08718 153.25 2.31538 168.382 2.55286 178.951C2.71117 185.997 2.8497 196.445 2.96844 210.297C2.65181 231.914 2.57265 245.926 2.73096 252.331" sodipodi:nodetypes="czzzzzzzzcccccczzzzzzczzczzzzcc"/><path id="shape02" transform="translate(91.4093894089662, 0.197932880658787)" fill="#ffffff" stroke="none" stroke-width="2.4" stroke-linecap="round" stroke-linejoin="round" d="M11.9201 62.5946C10.4269 61.97 6.51248 58.7236 4.36803 54.9509C1.5296 49.1553 -0.185585 44.1703 0.0160209 37.2686C-0.0597926 28.2996 2.14089 18.6537 7.97917 11.4952C9.0416 9.22667 16.4679 1.0745 18.6903 0C19.6963 0.652539 20.7487 2.65553 21.6869 4.66778C22.7488 6.94518 23.4234 7.99063 24.3306 9.46207C25.2555 8.3714 25.7346 7.3974 26.7936 5.7953C27.1282 5.05427 28.1863 3.4446 29.1346 2.34351C30.8254 4.45534 36.5589 13.358 37.9206 16.4521C38.9151 18.7116 40.7138 22.3122 41.4154 24.3294C42.629 27.8187 43.0297 31.3157 43.5006 34.3621C44.1264 38.4109 43.7836 44.0585 42.4506 48.8821C41.8309 51.1244 37.2793 59.2678 34.2507 61.4861C31.6553 61.2671 26.1424 60.851 23.4306 60.9421C20.7166 61.0332 14.9255 61.6634 11.9201 62.5946Z" sodipodi:nodetypes="cccccccccsssccsc"/><path id="shape1" transform="translate(111.46499610513, 4.22999985219305)" fill="#bfbfbf" fill-rule="evenodd" stroke="none" stroke-width="0.2328" stroke-linecap="square" stroke-linejoin="bevel" d="M0 0C1.23247 2.9112 1.80677 5.29081 2.79 7.47C3.5847 9.23135 3.9683 11.9171 4.545 13.9725C4.84149 11.9733 4.95748 10.6116 5.1975 9.435C5.52692 7.82016 6.13878 5.81716 6.6975 3.9225C6.14685 4.15052 5.17418 4.98653 4.395 5.505C3.20307 4.51881 1.15147 0.314033 0 0Z" sodipodi:nodetypes="cscsccc"/><path id="shape2" transform="translate(92.195857050263, 37.2149975905227)" fill="#bfbfbf" fill-rule="evenodd" stroke="none" stroke-width="0.2328" stroke-linecap="round" stroke-linejoin="round" d="M11.0341 25.425C9.34364 25.1536 7.15312 22.8377 5.90414 21.375C4.1986 19.3777 2.47694 16.0663 1.53914 13.59C0.174923 9.98778 -0.289446 0.163775 0.174137 0C0.550873 2.80822 2.55722 10.0471 4.50914 13.335C7.0354 17.5904 9.85478 21.6412 13.3891 22.71C12.5239 20.5241 11.5192 18.0341 11.0341 16.11C10.4819 13.9195 10.3804 13.7472 9.65414 8.46C10.9705 11.6619 12.0016 13.5288 13.1041 15.525C13.9878 17.1249 14.987 19.5094 16.2541 20.745C17.1045 21.5742 18.1795 22.9901 20.0341 22.86C20.7558 22.0043 21.1445 21.2386 21.4291 20.475C22.0293 18.8648 22.0165 17.4448 22.0141 14.58C22.3888 17.4181 22.7076 19.066 22.8691 19.92C23.0267 20.7529 23.3787 21.9617 23.9941 22.4775C24.3505 22.7762 24.6136 22.9255 25.5241 23.025C26.2603 22.7916 27.3427 22.108 27.9841 21.555C28.8 20.8515 29.8328 19.6926 30.2941 18.735C30.927 17.4211 31.161 15.3283 31.3441 13.845C31.5694 12.02 31.421 9.64409 31.5541 7.695C32.3337 9.80518 32.6685 10.7545 32.8441 12.105C33.0214 13.4678 33.7482 16.3852 32.4616 20.88C34.1897 19.9382 35.0275 18.9492 35.9641 17.91C37.6447 16.0453 39.2014 12.8241 40.2241 10.485C40.9678 8.78416 41.6262 6.12337 42.1741 4.365C42.439 4.39915 42.6347 8.19706 42.3241 9.645C41.5015 13.4804 38.6021 18.5086 36.2041 21.705C35.5042 22.6381 34.3469 24.0412 33.3241 24.405C31.4232 25.0813 28.2002 23.8963 26.0041 23.895C22.0623 23.8927 16.7094 24.0353 12.8641 24.795C12.3379 24.899 11.6151 25.5183 11.0341 25.425Z" sodipodi:nodetypes="csscscscsscscsscssscscsscsssscc"/><path id="shape3" transform="translate(16.6949989190676, 20.3399986830689)" fill="none" stroke="#000000" stroke-width="4.2" stroke-linecap="round" stroke-linejoin="round" d="M2.73096 234.9C2.57265 228.495 2.65181 214.483 2.96844 192.866C2.8497 179.014 2.71117 168.566 2.55286 161.52C2.31538 150.951 3.08718 135.819 3.32465 129.093C3.56213 122.368 1.42485 102.432 0.9499 93.5442C0.47495 84.6569 0 65.6814 0 58.9559C0 52.2304 0.87569 28.1807 0.638215 0.0776751C0.667898 -1.57368 26.4191 23.5869 31.5842 29.7119C36.7493 35.837 42.0924 41.7818 47.4356 50.4289C50.9978 56.1936 53.9959 60.8825 56.43 64.4954" sodipodi:nodetypes="cczzzzczzc"/><path id="shape4" transform="translate(67.1549951664867, 76.9333283521918)" fill="none" stroke="#000000" stroke-width="4.2" stroke-linecap="round" stroke-linejoin="miter" stroke-miterlimit="2.04" krita:marker-fill-method="auto" d="M0 12.1817C10.8375 6.31667 20.505 3.73667 22.41 3.24167C24.315 2.74667 30.405 1.18667 35.685 0.826667C40.965 0.466667 44.685 0.106667 47.925 0.106667C51.165 0.106667 55.485 -0.133333 60.405 0.106667C65.325 0.346667 71.925 0.706669 77.325 1.54667C82.725 2.38667 87.06 3.45167 89.46 4.09667C91.06 4.52667 94.335 5.51167 99.285 7.05167" sodipodi:nodetypes="czzzzzzc"/><path id="shape5" transform="translate(167.639994142045, 19.4399993206952)" fill="#000000" fill-rule="evenodd" d="M0 0.12C0 0.08 0 0.04 0 0" sodipodi:nodetypes="cc"/><path id="shape6" transform="translate(160.732815367962, 2.90850155269161)" fill="none" stroke="#000000" stroke-width="4.2" stroke-linecap="round" stroke-linejoin="round" d="M0 77.987C0 80.5945 0.397231 74.3216 0.805395 71.0826C1.69727 65.7945 2.32704 62.3153 2.98735 58.3684C5.16628 45.4311 16.1235 21.3682 18.61 17.3411C21.956 10.9951 22.8935 9.26508 28.4937 0C31.3272 3.5115 38.2422 14.5665 39.7572 18.1515C42.1709 22.5656 45.9672 33.0315 46.9872 36.5715C48.0072 40.1115 53.9472 59.9715 54.4272 62.1315C54.9072 64.2915 57.9072 75.5715 58.3872 77.6115C58.8672 79.6515 63.1872 97.1715 63.9072 101.851C64.6272 106.531 66.6072 118.051 67.1472 121.831C67.6872 125.611 70.3872 141.811 70.7472 149.011C71.1072 156.211 72.1872 178.531 72.5472 186.991C72.9072 195.451 73.8072 217.051 73.2672 226.771C72.9072 233.251 72.4272 238.611 71.8272 242.851" sodipodi:nodetypes="cccccczzzzzzzzc"/><path id="shape7" transform="translate(63.9599977650304, 55.1399980732298)" fill="#c67878" fill-rule="evenodd" stroke="#000000" stroke-width="2.4" stroke-linecap="round" stroke-linejoin="round" d="M39.63 8.7C38.055 8.826 35.9461 9.07694 34.38 9.12C29.7348 9.24773 23.9721 7.85054 19.92 6.48C16.4092 5.29254 11.7592 3.53292 8.22 2.4C5.77415 1.61706 1.22391 0.149691 0 0C0.441638 1.27398 1.56473 5.02556 2.16 7.2C2.73273 9.29211 3.53315 12.0873 3.9 14.22C4.05596 15.1267 4.26609 16.5669 4.62 17.37C6.3812 16.9863 10.9265 16.4388 13.8 16.32C16.7274 16.199 22.6233 17.0998 24.63 17.34C26.4564 17.5586 37.5655 19.5039 40.755 20.1" sodipodi:nodetypes="cssscsscssc"/><path id="shape8" transform="translate(125.684991862464, 55.1699980721858)" fill="#c67878" fill-rule="evenodd" stroke="#000000" stroke-width="2.4" stroke-linecap="round" stroke-linejoin="round" d="M0.270004 8.055C3.1185 7.6365 6.51987 7.26351 9.315 6.615C13.2236 5.70814 18.2396 3.67702 22.095 2.52C24.7801 1.71422 29.7075 0.0686669 31.095 0C30.9742 1.2416 30.5937 3.97949 30.33 5.67C30.0826 7.2561 29.863 9.47766 30.06 11.07C30.2326 12.4649 30.4063 14.2632 30.81 15.915C29.075 15.7892 23.7469 15.6455 20.385 15.705C17.413 15.7576 12.6654 16.0201 9.675 16.56C6.72935 17.0918 2.86494 17.9188 0 18.72" sodipodi:nodetypes="csscsscssc"/><path id="shape03" transform="translate(142.339503939798, 153.696137341866)" fill="#d88f57" stroke="#000000" stroke-width="4.2" stroke-linecap="round" stroke-linejoin="round" d="M0 0.315C0.252 8.235 0.617063 18.7838 1.125 26.28C1.56185 32.7271 5.85208 42.5815 13.335 42.72C20.1382 42.8459 24.8516 33.819 24.825 25.98C24.797 17.7059 24.165 8.892 23.985 0" sodipodi:nodetypes="csssc"/><path id="shape9" transform="translate(27.3599982285664, 50.7599967135246)" fill="#e6e6e6" fill-rule="evenodd" stroke="#000000" stroke-width="1.44" stroke-linecap="round" stroke-linejoin="round" d="M0 0C6.45766 8.16221 12.9783 18.0747 16.56 24.12C21.6239 32.6672 32.36 45.8594 33.96 48.51C32.5863 48.511 31.1038 48.3197 29.04 48.12C29.5184 52.422 29.8829 56.9137 30.06 61.2C30.2921 69.861 30.5998 71.3687 31.0275 73.515C28.9693 73.7279 22.6321 73.5714 20.16 73.68C19.5702 76.3382 16.1682 81.5044 14.22 84.06C12.3842 86.4682 9.3764 90.8523 7.17 92.04C7.03361 90.3177 6.72883 86.8013 6.63 84.36C6.55602 82.5325 7.2443 79.0394 7.38 77.52C4.9732 78.1231 2.17824 77.0313 0.0600017 77.4C1.09176 74.9188 2.24723 71.1751 3.12 68.55C4.16788 65.3983 5.28983 62.5741 7.02 58.23C7.76822 52.9479 8.6167 41.1366 8.01 34.29C7.32787 26.5922 6.9435 15.315 5.085 6.81" sodipodi:nodetypes="cscccccscsccscsc"/><path id="shape10" transform="translate(163.349989423872, 34.1999988049535)" fill="#e6e6e6" fill-rule="evenodd" stroke="#000000" stroke-width="1.44" stroke-linecap="round" stroke-linejoin="round" d="M44.37 65.7C41.8043 54.6051 39.5576 42.1631 36.27 31.32C33.4128 21.8963 28.7748 7.60131 26.37 0C24.4224 4.46867 22.0795 9.86675 20.61 14.22C19.4305 17.714 18.0998 23.1967 17.37 26.1C15.089 26.1008 8.87354 26.903 6.93 27.36C8.20231 35.5501 7.69131 42.2029 8.31 45.885C7.64978 47.2124 6.82372 48.897 5.73 50.22C6.51737 56.8744 5.10919 58.3348 4.23 61.65C3.37727 64.8654 0.971876 70.0082 0 72C3.96636 71.3895 8.89123 69.8446 12.6 68.4C16.617 70.8954 20.2823 74.4565 23.31 76.77C29.7709 71.9501 36.567 64.755 42.12 57.42" sodipodi:nodetypes="cscsccccscccc"/><path id="shape11" transform="translate(136.799991142825, 152.279990140566)" fill="none" stroke="#000000" stroke-width="4.2" stroke-linecap="round" stroke-linejoin="bevel" d="M0 0.72C13.5 0.504 31.5 0.216 45 0" sodipodi:nodetypes="cc"/><path id="shape12" transform="translate(103.506785112302, 61.5374978543722)" fill="#c67878" fill-rule="evenodd" stroke="#000000" stroke-width="2.4" stroke-linecap="round" stroke-linejoin="round" d="M0.113214 1.2525C-0.0833315 3.21601 0.00167633 6.05701 0.173208 7.9125C0.356891 9.89942 0.945273 13.4383 1.71821 15.39C4.83154 15.2036 8.50211 15.2655 11.3782 15.1425C14.8606 14.9936 19.1993 15.0715 20.7832 15.1875C22.2963 13.8971 22.2748 9.78159 22.4182 7.1625C22.5293 5.13452 22.3267 1.926 21.8407 0" sodipodi:nodetypes="cscscsc"/><path id="shape13" transform="translate(91.4093893625943, 0.197932880658787)" fill="none" stroke="#000000" stroke-width="2.4" stroke-linecap="round" stroke-linejoin="round" d="M11.9201 62.5946C10.4269 61.97 6.51248 58.7236 4.36803 54.9509C1.5296 49.1553 -0.185585 44.1703 0.0160209 37.2686C-0.0597926 28.2996 2.14089 18.6537 7.97917 11.4952C9.0416 9.22667 16.4679 1.0745 18.6903 0C19.6963 0.652539 20.7487 2.65553 21.6869 4.66778C22.7488 6.94518 23.4234 7.99063 24.3306 9.46207C25.593 7.7864 25.7346 7.3974 26.7936 5.7953C27.1282 5.05427 28.1863 3.4446 29.1346 2.34351C30.8254 4.45534 36.5589 13.358 37.9206 16.4521C38.9151 18.7116 40.7138 22.3122 41.4154 24.3294C42.629 27.8187 43.0297 31.3157 43.5006 34.3621C44.1264 38.4109 43.7836 44.0585 42.4506 48.8821C41.8309 51.1244 37.2793 59.2678 34.2507 61.4861C31.6553 61.2671 26.1424 60.851 23.4306 60.9421C20.7166 61.0332 14.9255 61.6634 11.9201 62.5946Z" sodipodi:nodetypes="cccccccccsssccsc"/><path id="shape04" transform="translate(58.8840207351654, 155.550267751647)" fill="#d88f57" stroke="#000000" stroke-width="4.2" stroke-linecap="round" stroke-linejoin="round" d="M0 0.315C0.252 8.235 0.617063 18.7838 1.125 26.28C1.56185 32.7271 5.85208 42.5815 13.335 42.72C20.1382 42.8459 24.8516 33.819 24.825 25.98C24.797 17.7059 24.165 8.892 23.985 0" sodipodi:nodetypes="csssc"/><path id="shape14" transform="translate(47.1599997575604, 154.562084320521)" fill="none" stroke="#000000" stroke-width="4.2" stroke-linecap="round" stroke-linejoin="bevel" d="M0 0.417915C11.7178 0.507915 29.65 -0.362085 40.56 0.177915" sodipodi:nodetypes="cc"/>
</svg>
